# xmcd
#
# Track frame offsets:
#	150
#	17847
#	32981
#	48989
#	62418
#	81791
#	94292
#	105709
#	120175
#	130148
#	152146
#	171668
#
# Disc length: 2470 seconds
#
# Revision: 1
# Processed by: cddbd v1.5.2PL0 Copyright (c) Steve Scherf et al.
# Submitted via: audiograbber 1.83.01
#
DISCID=9909a40c
DTITLE=Martin Comeau - Si Tu Chantes Des Chansons...
DYEAR=1900
DGENRE=Country
TTITLE0=Bonheur Quotidien(Pierre Guillemette-Pierre Guillemette)
TTITLE1=Si J'étais Perdu(Pierre Delanoë(Traduc)
TTITLE2=La Lumière De L'amour(Patrick Norman-Patrick Norman)
TTITLE3=Si Tu Chantes Des Chansons(André Sylvain-André Sylvain)
TTITLE4=Fréquenter L'oubli(Kevin Parent-Kevin Parent)
TTITLE5=T'as Sûrement Un Ami(Pierre Guillemette-Pierre Guillemette)
TTITLE6=L'amour N'a Jamais Brisé De Coeur(Albert Babin-Albert Babin)
TTITLE7=On Jase De Toi(Noir Silence-Noir Silence)
TTITLE8=Stewball(Hugues Aufray-Hugues Aufray)
TTITLE9=Tu As Quitté Sans Saluer(Adapt(Abert Babin))
TTITLE10=La Renaissance(Pierre Guillemette-Pierre Guillemette)
TTITLE11=Mes Pas Dans Les Tiens Seigneur(Jean-Jacques Simoneau-Jean-Jacques Sim
TTITLE11=oneau)
EXTD=
EXTT0=
EXTT1=
EXTT2=
EXTT3=
EXTT4=
EXTT5=
EXTT6=
EXTT7=
EXTT8=
EXTT9=
EXTT10=
EXTT11=
PLAYORDER=
